<svg xmlns="http://www.w3.org/2000/svg" version="1.1" xmlns:xlink="http://www.w3.org/1999/xlink" viewBox="471.5 0 557 397"><svg xml:space="preserve" width="1500" height="397" data-version="2" data-id="lg_40itpuGb9l10QnBs6b" viewBox="0 0 557 397" x="0" y="0"><rect width="100%" height="100%" fill="transparent"/><circle r="99.82" fill="#2a3663" transform="translate(178.78 177.62)scale(1.7293)"/><path fill="#fff" d="M303.33 268.59q2.03 0 4.06-4.06t2.03-13.34v-124.7q0-6.38-1.45-7.54-1.45-1.16-10.15-1.16h-21.17q-16.82 0-27.12 3.62-10.29 3.63-13.48 6.82l5.8-27.84v-5.8h167.62v5.8l5.8 27.84q-3.19-3.19-13.49-6.82-10.29-3.62-27.11-3.62h-20.88q-8.99 0-10.44 1.16-1.45 1.16-1.45 7.54v124.7q0 9.28 2.03 13.34 2.03 4.06 4.06 4.06Z"/><rect width="179.22" height="174" x="-89.61" y="-87" fill="none" rx="0" ry="0" transform="translate(326.16 182.09)"/><path fill="#fff" d="M472.11 339.35q-16.82 0-30.89-2.32-14.06-2.32-24.36-5.66-10.29-3.33-15.8-6.52l5.8-26.1v-8.41q4.06 6.09 12.76 12.76t21.75 11.31q13.05 4.64 29.58 4.64 19.43 0 28.85-6.38 9.43-6.38 12.47-17.69 3.05-11.31 3.05-25.81v-10.73l.58-5.22-.58-.58q-3.77 4.93-10.44 9.28t-15.95 6.96q-9.28 2.61-20.88 2.61-27.55 0-42.78-9.28-15.22-9.28-21.17-25.23-5.94-15.95-5.94-35.96 0-20.3 5.94-36.25 5.95-15.95 21.17-25.38 15.23-9.42 42.78-9.42 11.6 0 20.59 2.17 8.99 2.18 15.66 5.8 6.67 3.63 11.02 8.56l.58-.29-.58-5.51v-7.83h35.38q-2.03.29-3.92 4.35-1.88 4.06-1.88 13.63v111.07q0 42.05-17.84 59.74-17.83 17.69-54.95 17.69m-2.03-88.45q17.98 0 27.84-5.66 9.86-5.65 13.63-16.82 3.77-11.16 3.77-27.4 0-15.95-3.92-27.26-3.91-11.31-13.63-17.4-9.71-6.09-27.69-6.09-16.24 0-25.52 6.23-9.28 6.24-13.2 17.69-3.91 11.46-3.91 27.12 0 15.37 3.77 26.53 3.77 11.17 13.19 17.11 9.43 5.95 25.67 5.95"/><rect width="152.54" height="209.38" x="-76.27" y="-104.69" fill="none" rx="0" ry="0" transform="translate(474.93 235.16)"/><path fill="#fff" d="M293.48 391.63q-.46 0-.23-.61.46-1.52-1.97-2.62-2.44-1.1-6.5-1.67-4.07-.57-8.7-.57-3.04 0-6.01.23-2.96.22-5.62.83-1.83.38-3.84 1.1-2.01.73-3.88 1.26-1.86.53-3.23.53-.91 0-1.44-.3-.53-.31-.53-1.37 0-1.07.95-2.47.95-1.41 3.57-2.81 2.62-1.41 7.56-2.32 1.45-.31 2.13-.46.68-.15 1.98-.76 4.48-1.97 9-3.95 4.52-1.98 8.78-4.33 3.27-1.83 4.64-3.84 1.36-2.01 1.36-3.91 0-2.44-1.78-4.18-1.79-1.75-4.45-2.13-.99-.15-1.97-.23-.99-.08-1.98-.08-4.48 0-8.06 1.18-3.57 1.18-5.66 2.78-2.09 1.59-2.09 2.73 0 1.29 2.59 1.29 1.82 0 4.86-.76 2.96-.76 5.17-1.82 2.2-1.06 3.65-2.51.22-.23.3-.26.08-.04.15.26.08.23.08.61 0 1.14-1.07 2.17-1.06 1.02-2.58 1.93-1.52.92-2.93 1.49-1.4.57-2.16.79-2.21.54-4.03.8-1.82.27-3.19.27-2.59 0-3.8-.72-1.22-.73-1.22-1.87 0-1.67 2.05-3.57 1.52-1.37 4.11-2.7 2.58-1.33 5.85-2.43 3.27-1.1 6.76-1.75 3.5-.64 6.77-.64 3.8 0 6.95 1.06 3.16 1.07 4.6 3.73.84 1.44.84 3.04 0 2.28-1.79 4.82-1.79 2.55-5.59 4.98-4.18 2.66-9.72 4.67-5.55 2.02-10.64 3.77 3.64.07 7.6.6 3.95.54 7.33 1.68t5.47 2.96q2.09 1.82 2.09 4.41v.45q0 .23-.07.54-.08.68-.46.68"/><rect width="47.73" height="37.39" x="-23.86" y="-18.7" fill="none" rx="0" ry="0" transform="translate(275.9 373.44)"/><path fill="#fff" d="M311.26 390.72q-4.02 0-6.46-2.17-2.43-2.16-2.43-5.66 0-3.8 1.75-7.83t4.79-7.75q3.04-3.72 6.84-6.65t7.9-4.67q4.11-1.75 8.06-1.75 4.63 0 7.79 2.28 3.15 2.28 3.15 7.45 0 3.26-1.86 6.95-1.86 3.69-5.05 7.18-3.2 3.5-7.22 6.35-4.03 2.85-8.48 4.56-4.44 1.71-8.78 1.71m.08-1.9q2.89 0 6.12-1.26 3.23-1.25 6.34-3.45 3.12-2.21 5.63-5.1 2.51-2.88 4.03-6.11 1.52-3.23 1.52-6.5 0-2.89-2.06-4.49-2.05-1.59-5.7-1.59-3.04 0-6.27 1.33-3.23 1.33-6.23 3.65-3 2.31-5.36 5.2-2.35 2.89-3.72 6.04-1.37 3.16-1.37 6.2 0 2.73 1.86 4.41 1.87 1.67 5.21 1.67"/><rect width="40.28" height="36.48" x="-20.14" y="-18.24" fill="none" rx="0" ry="0" transform="translate(323.01 372.98)"/><path fill="#fff" d="M381.56 391.63q-.45 0-.22-.61.45-1.52-1.98-2.62t-6.5-1.67q-4.06-.57-8.7-.57-3.04 0-6 .23-2.97.22-5.63.83-1.82.38-3.84 1.1-2.01.73-3.87 1.26-1.86.53-3.23.53-.91 0-1.45-.3-.53-.31-.53-1.37 0-1.07.95-2.47.95-1.41 3.57-2.81 2.63-1.41 7.57-2.32 1.44-.31 2.12-.46.69-.15 1.98-.76 4.48-1.97 9.01-3.95 4.52-1.98 8.77-4.33 3.27-1.83 4.64-3.84 1.37-2.01 1.37-3.91 0-2.44-1.79-4.18-1.78-1.75-4.44-2.13-.99-.15-1.98-.23-.99-.08-1.98-.08-4.48 0-8.05 1.18-3.57 1.18-5.66 2.78-2.09 1.59-2.09 2.73 0 1.29 2.58 1.29 1.82 0 4.86-.76 2.97-.76 5.17-1.82 2.21-1.06 3.65-2.51.23-.23.3-.26.08-.04.16.26.07.23.07.61 0 1.14-1.06 2.17-1.07 1.02-2.59 1.93-1.52.92-2.92 1.49-1.41.57-2.17.79-2.2.54-4.03.8-1.82.27-3.19.27-2.58 0-3.8-.72-1.21-.73-1.21-1.87 0-1.67 2.05-3.57 1.52-1.37 4.1-2.7 2.59-1.33 5.85-2.43 3.27-1.1 6.77-1.75 3.49-.64 6.76-.64 3.8 0 6.96 1.06 3.15 1.07 4.59 3.73.84 1.44.84 3.04 0 2.28-1.79 4.82-1.78 2.55-5.58 4.98-4.18 2.66-9.73 4.67-5.55 2.02-10.64 3.77 3.65.07 7.6.6 3.95.54 7.33 1.68 3.39 1.14 5.48 2.96 2.09 1.82 2.09 4.41v.45q0 .23-.08.54-.08.68-.46.68"/><rect width="47.73" height="37.39" x="-23.86" y="-18.7" fill="none" rx="0" ry="0" transform="translate(363.98 373.44)"/><path fill="#fff" d="M396.38 391.86q-3.95 0-6.68-1.22-2.74-1.21-2.74-4.33 0-1.82 1.25-3.31 1.26-1.48 3.23-2.66 1.98-1.17 4.03-2.01 2.21-.84 5.51-1.25 3.31-.42 6.12-.42 2.89 0 4.56.38 1.06.23 1.06.76 0 .3-1.21.3-.76 0-2.7.31-1.94.3-4.48.83-2.55.53-5.17 1.33t-4.9 1.71q-3.04 1.22-4.37 2.43-1.33 1.22-1.33 2.28 0 1.52 2.58 2.51 2.58.99 6.31.99 3.04 0 6.42-.72t6.5-2.32q4.56-2.36 6.61-4.67 2.05-2.32 2.05-4.45 0-2.51-2.73-4.79-1.6-1.29-5.48-2.32-3.87-1.02-9.19-.95-.38.38-.76.84-.38.46-.76.84-.46.53-1.29.53-.46 0-.84-.23-.38-.23-.38-.61 0-.45.61-.99 2.13-1.82 5.28-4.75 3.15-2.92 5.81-5.81-.98-.84-1.36-1.75-.38-.91-.38-1.59 0-1.37.6-1.68.38-.3 1.14-.3 1.45 0 3.39.84 1.93.83 3.61 1.21 1.29.31 2.85.46 1.55.15 3.15.15 3.42 0 6.61-.57 3.19-.57 5.28-1.63 2.09-1.07 2.09-2.44 0-.45.27-.6.27-.16.27.53-.08 2.66-2.02 4.56-1.94 1.9-4.82 3.08-2.89 1.17-6.08 1.74-3.2.57-5.78.57-.99 0-1.82-.11-.84-.11-1.52-.19-2.44-.46-4.11-1.37-1.52 1.67-3.34 3.42-1.83 1.75-3.65 3.73 1.75-.38 3.88-.61 2.12-.23 4.25-.23 3.12 0 6.01.61 2.88.61 4.86 2.2 2.74 2.21 2.74 5.32 0 3.27-2.97 6.77-2.96 3.49-7.83 5.77-1.67.76-4.71 1.67-3.04.92-6.61 1.56-3.57.65-6.92.65"/><rect width="49.86" height="39.76" x="-24.93" y="-19.88" fill="none" rx="0" ry="0" transform="translate(412.39 372.48)"/></svg></svg>